<svg width="29" height="29" viewBox="0 0 29 29" fill="none" xmlns="http://www.w3.org/2000/svg">
<path d="M0 2.71875C0 2.4784 0.0954797 2.24789 0.265434 2.07793C0.435389 1.90798 0.665898 1.8125 0.90625 1.8125H3.625C3.82715 1.81256 4.02348 1.8802 4.18276 2.00467C4.34205 2.12914 4.45514 2.3033 4.50406 2.49944L5.23813 5.4375H26.2812C26.4153 5.43758 26.5476 5.46739 26.6687 5.52478C26.7899 5.58216 26.8967 5.6657 26.9817 5.76937C27.0666 5.87304 27.1275 5.99426 27.16 6.12429C27.1924 6.25433 27.1956 6.38995 27.1694 6.52138L25.3569 15.5839C25.3172 15.7815 25.2128 15.9603 25.0602 16.0919C24.9075 16.2235 24.7154 16.3005 24.5141 16.3107L7.482 17.1662L8.00219 19.9375H23.5625C23.8029 19.9375 24.0334 20.033 24.2033 20.2029C24.3733 20.3729 24.4688 20.6034 24.4688 20.8438C24.4688 21.0841 24.3733 21.3146 24.2033 21.4846C24.0334 21.6545 23.8029 21.75 23.5625 21.75H7.25C7.03872 21.7498 6.83415 21.6758 6.67165 21.5408C6.50915 21.4057 6.39894 21.2182 6.36006 21.0105L3.64312 6.53769L2.91813 3.625H0.90625C0.665898 3.625 0.435389 3.52952 0.265434 3.35957C0.0954797 3.18961 0 2.9591 0 2.71875ZM5.62237 7.25L7.14487 15.3682L23.7184 14.5363L25.1756 7.25H5.62237ZM9.0625 21.75C8.10109 21.75 7.17906 22.1319 6.49924 22.8117C5.81942 23.4916 5.4375 24.4136 5.4375 25.375C5.4375 26.3364 5.81942 27.2584 6.49924 27.9383C7.17906 28.6181 8.10109 29 9.0625 29C10.0239 29 10.9459 28.6181 11.6258 27.9383C12.3056 27.2584 12.6875 26.3364 12.6875 25.375C12.6875 24.4136 12.3056 23.4916 11.6258 22.8117C10.9459 22.1319 10.0239 21.75 9.0625 21.75ZM21.75 21.75C20.7886 21.75 19.8666 22.1319 19.1867 22.8117C18.5069 23.4916 18.125 24.4136 18.125 25.375C18.125 26.3364 18.5069 27.2584 19.1867 27.9383C19.8666 28.6181 20.7886 29 21.75 29C22.7114 29 23.6334 28.6181 24.3133 27.9383C24.9931 27.2584 25.375 26.3364 25.375 25.375C25.375 24.4136 24.9931 23.4916 24.3133 22.8117C23.6334 22.1319 22.7114 21.75 21.75 21.75ZM9.0625 23.5625C9.5432 23.5625 10.0042 23.7535 10.3441 24.0934C10.684 24.4333 10.875 24.8943 10.875 25.375C10.875 25.8557 10.684 26.3167 10.3441 26.6566C10.0042 26.9965 9.5432 27.1875 9.0625 27.1875C8.5818 27.1875 8.12078 26.9965 7.78087 26.6566C7.44096 26.3167 7.25 25.8557 7.25 25.375C7.25 24.8943 7.44096 24.4333 7.78087 24.0934C8.12078 23.7535 8.5818 23.5625 9.0625 23.5625ZM21.75 23.5625C22.2307 23.5625 22.6917 23.7535 23.0316 24.0934C23.3715 24.4333 23.5625 24.8943 23.5625 25.375C23.5625 25.8557 23.3715 26.3167 23.0316 26.6566C22.6917 26.9965 22.2307 27.1875 21.75 27.1875C21.2693 27.1875 20.8083 26.9965 20.4684 26.6566C20.1285 26.3167 19.9375 25.8557 19.9375 25.375C19.9375 24.8943 20.1285 24.4333 20.4684 24.0934C20.8083 23.7535 21.2693 23.5625 21.75 23.5625V23.5625Z" fill="black"/>
</svg>
