<svg width="18" height="14" viewBox="0 0 18 14" fill="none" xmlns="http://www.w3.org/2000/svg">
<path d="M17.2765 0.247122C17.3473 0.325258 17.4036 0.418081 17.4419 0.520274C17.4803 0.622466 17.5 0.732021 17.5 0.842662C17.5 0.953304 17.4803 1.06286 17.4419 1.16505C17.4036 1.26724 17.3473 1.36007 17.2765 1.4382L6.62573 13.2144C6.55507 13.2928 6.47111 13.3549 6.37869 13.3973C6.28626 13.4397 6.18718 13.4615 6.08711 13.4615C5.98704 13.4615 5.88796 13.4397 5.79553 13.3973C5.70311 13.3549 5.61916 13.2928 5.54849 13.2144L0.223105 7.32631C0.0802533 7.16836 0 6.95414 0 6.73077C0 6.5074 0.0802533 6.29318 0.223105 6.13523C0.365957 5.97728 0.559706 5.88855 0.76173 5.88855C0.963753 5.88855 1.1575 5.97728 1.30035 6.13523L6.08711 11.4295L16.1992 0.247122C16.2699 0.168788 16.3539 0.106638 16.4463 0.0642331C16.5387 0.0218278 16.6378 0 16.7379 0C16.8379 0 16.937 0.0218278 17.0294 0.0642331C17.1219 0.106638 17.2058 0.168788 17.2765 0.247122V0.247122Z" fill="white"/>
</svg>
